<?xml version="1.0" standalone="no"?>
<!DOCTYPE svg PUBLIC "-//W3C//DTD SVG 20010904//EN"
 "http://www.w3.org/TR/2001/REC-SVG-20010904/DTD/svg10.dtd">
<svg version="1.0" xmlns="http://www.w3.org/2000/svg"
 width="113.000000pt" height="111.000000pt" viewBox="0 0 113.000000 111.000000"
 preserveAspectRatio="xMidYMid meet">
<metadata>
Created by potrace 1.16, written by Peter Selinger 2001-2019
</metadata>
<g transform="translate(0.000000,111.000000) scale(0.100000,-0.100000)"
fill="#000000" stroke="none">
<path d="M0 908 c0 -248 26 -616 46 -639 8 -8 14 -28 14 -44 0 -31 77 -170
111 -201 20 -18 41 -19 363 -19 l341 0 76 33 c123 54 176 129 121 171 -21 15
-21 17 -5 61 14 41 14 48 0 82 -20 48 -54 65 -92 47 -46 -23 -70 -64 -69 -119
l0 -49 -44 -11 c-33 -8 -52 -8 -77 1 -29 11 -34 18 -40 55 -11 76 -58 126
-102 109 -14 -5 -14 -8 4 -20 12 -8 29 -35 39 -60 29 -78 1 -105 -110 -105
-47 0 -58 6 -75 38 -17 32 -67 52 -104 41 -40 -11 -64 -35 -79 -75 -8 -22 -15
-30 -23 -24 -6 5 -22 11 -35 13 -14 3 -38 12 -54 21 -16 8 -33 13 -37 11 -9
-6 -15 63 -39 445 -11 184 -23 359 -26 388 l-5 52 -50 0 -49 0 0 -202z"/>
<path d="M475 1090 c-29 -11 -44 -32 -64 -87 -11 -29 -23 -47 -32 -46 -8 1
-48 4 -91 8 -70 6 -77 9 -82 31 -4 13 0 41 9 61 15 38 15 38 -4 15 -26 -30
-35 -93 -21 -137 14 -43 54 -72 111 -81 24 -4 47 -12 51 -18 5 -6 8 -1 8 12 0
28 2 28 56 -4 25 -15 51 -23 61 -20 14 6 15 -5 10 -108 -3 -63 -9 -120 -13
-127 -9 -15 -169 -5 -189 11 -10 8 -12 26 -8 59 3 28 1 51 -5 55 -11 7 -18
-26 -28 -137 -6 -74 -5 -80 22 -120 27 -41 46 -39 24 3 -12 22 -12 22 87 19
l98 -4 3 25 c3 25 4 25 93 25 69 0 92 3 99 15 15 24 12 32 -9 20 -22 -11 -110
-13 -127 -2 -7 4 -15 50 -19 103 l-7 96 74 5 c41 3 80 8 86 12 7 4 12 30 12
58 0 43 -2 49 -17 44 -9 -4 -36 -10 -60 -13 l-43 -6 15 29 c31 59 14 169 -30
198 -27 18 -40 19 -70 6z"/>
<path d="M718 823 c-2 -10 0 -54 4 -98 6 -57 13 -84 25 -95 11 -9 19 -31 20
-55 2 -22 6 -83 10 -135 8 -93 9 -95 33 -95 l25 0 -4 93 -3 92 38 0 c22 0 55
5 76 10 34 10 36 13 40 55 3 41 2 44 -17 38 -11 -4 -36 -7 -55 -8 -38 0 -35
-9 -55 146 -6 46 -7 47 -48 53 -23 4 -52 9 -64 12 -15 4 -22 1 -25 -13z"/>
</g>
</svg>
